<?xml version="1.0" standalone="no"?>
<!DOCTYPE svg PUBLIC "-//W3C//DTD SVG 20010904//EN"
 "http://www.w3.org/TR/2001/REC-SVG-20010904/DTD/svg10.dtd">
<svg version="1.0" xmlns="http://www.w3.org/2000/svg"
 width="960.000000pt" height="317.000000pt" viewBox="0 0 960.000000 317.000000"
 preserveAspectRatio="xMidYMid meet">

<g transform="translate(0.000000,317.000000) scale(0.100000,-0.100000)"
fill="#000000" stroke="none">
<path d="M4300 1605 l0 -1225 395 0 395 0 0 1225 0 1225 -395 0 -395 0 0
-1225z"/>
<path d="M5502 2538 l3 -293 458 -3 457 -2 0 295 0 295 -460 0 -460 0 2 -292z"/>
<path d="M6880 1605 l0 -1225 335 0 335 0 0 1225 0 1225 -335 0 -335 0 0
-1225z"/>
<path d="M7960 2550 l0 -280 138 0 c157 0 195 -12 250 -75 43 -48 53 -76 53
-145 1 -100 -39 -165 -126 -206 -45 -21 -64 -24 -182 -24 l-133 0 0 -273 0
-274 217 -446 217 -447 444 0 444 0 -29 53 c-74 132 -515 968 -512 970 2 2 40
20 84 42 62 31 101 60 172 130 79 78 98 103 137 185 133 278 87 608 -116 825
-85 91 -183 154 -303 194 -134 45 -194 51 -487 51 l-268 0 0 -280z"/>
<path d="M420 1590 l0 -1200 385 0 385 0 0 1200 0 1200 -385 0 -385 0 0 -1200z"/>
<path d="M1560 2485 l0 -305 395 0 395 0 0 -895 0 -895 385 0 385 0 2 893 3
892 393 3 392 2 0 305 0 305 -1175 0 -1175 0 0 -305z"/>
<path d="M5507 1903 c-4 -3 -7 -132 -7 -285 l0 -278 365 0 365 0 0 285 0 285
-358 0 c-197 0 -362 -3 -365 -7z"/>
<path d="M5507 963 c-4 -3 -7 -136 -7 -295 l0 -288 475 0 475 0 0 295 0 295
-468 0 c-258 0 -472 -3 -475 -7z"/>
</g>
</svg>
